<svg width="512" height="512"  xmlns="http://www.w3.org/2000/svg" xmlns:xlink="http://www.w3.org/1999/xlink" x="0px" y="0px"
	 viewBox="0 0 1920 1920" style="enable-background:new 0 0 1920 1920;" xml:space="preserve">
<style type="text/css">
	.st0{fill:#333333;}
	.st1{fill:#B3B3B3;}
	.st2{fill:#004978;}
	.st3{fill:#ED1C24;}
	.st4{fill:#FFFFFF;}
</style>
<g>
	<g>
		<g>
			<g>
				<path class="st0" d="M355.2,773.7c-9.6,65.7-10.9,131.3-1.1,194.8c4.9,31.7,11.6,62.9,21.3,93.1c9.7,30.2,21.3,59.5,35.3,87.5
					l5.3,10.4c1.7,3.5,3.5,7,5.5,10.4l11.5,20.3l12.4,19.8c4.2,6.5,8.8,12.8,13.2,19.2c18.1,25.1,37.7,49,59.2,70.9
					c42.9,43.9,92.5,80.2,145.9,108.1c53.6,27.5,111.3,46.6,170.3,56.2c14.7,2.6,29.6,4,44.3,5.5c7.4,0.4,14.9,0.8,22.3,1.3
					c3.7,0.3,7.4,0.3,11.1,0.3l11.1,0.2c29.7,0.1,59.3-2.2,88.5-6.8c50.5-8.5,99.9-23.3,146.3-44.9c6.1,3.7,122.8,71.6,131.6,76.7
					c-16.9,10.4-34.3,20-52,28.9c-32.7,16.3-66.8,29.6-101.8,40.1c-34.9,10.4-70.7,18.2-106.9,22.6c-36.2,4.3-72.6,5.6-108.9,4
					l-13.6-0.7c-4.5-0.3-9.1-0.4-13.6-1l-27-3c-17.9-2.8-35.8-5.5-53.4-9.6l-13.2-2.9l-13.1-3.5l-13.1-3.5l-6.5-1.8l-6.4-2.1
					l-25.7-8.3c-8.4-3.1-16.8-6.4-25.2-9.7c-33.3-13.6-65.5-29.8-96.1-48.5c-30.6-18.6-59.2-40.4-85.9-63.9
					c-26.7-23.6-51.6-49-73.5-76.9c-44.1-55.3-79-117.3-101.8-183.1C304.7,1042.6,306.9,897.4,355.2,773.7z"/>
				<path class="st0" d="M781.3,347.6c65.7-9.6,131.3-10.9,194.8-1.1c31.7,4.9,62.9,11.6,93.1,21.3c30.2,9.7,59.5,21.3,87.5,35.3
					l10.4,5.3c3.5,1.7,7,3.5,10.4,5.5l20.3,11.5l19.8,12.4c6.5,4.2,12.8,8.8,19.2,13.2c25.1,18.1,49,37.7,70.9,59.2
					c43.9,42.9,80.2,92.5,108.1,145.9c27.5,53.6,46.6,111.3,56.2,170.3c2.6,14.7,4,29.6,5.5,44.3c0.4,7.4,0.8,14.9,1.3,22.3
					c0.3,3.7,0.3,7.4,0.3,11.1l0.2,11.1c0.1,29.7-2.2,59.3-6.8,88.5c-8.5,50.5-23.3,99.9-44.9,146.3c3.7,6.1,71.6,122.8,76.7,131.6
					c10.4-16.9,20-34.3,28.9-52c16.3-32.7,29.6-66.8,40.1-101.8c10.4-34.9,18.2-70.7,22.6-106.9c4.3-36.2,5.6-72.6,4-108.9
					l-0.7-13.6c-0.3-4.5-0.4-9.1-1-13.6l-3-27c-2.8-17.9-5.5-35.8-9.6-53.4l-2.9-13.2l-3.5-13.1l-3.5-13.1l-1.8-6.5l-2.1-6.4
					l-8.3-25.7c-3.1-8.4-6.4-16.8-9.7-25.2c-13.6-33.3-29.8-65.5-48.5-96.1c-18.6-30.6-40.4-59.2-63.9-85.9
					c-23.6-26.7-49-51.6-76.9-73.5c-55.3-44.1-117.3-79-183.1-101.8C1050.2,297.2,904.9,299.3,781.3,347.6z"/>
			</g>
			<g>
				<path class="st1" d="M958.9,552.3c-18.8-1.4-37.3-6-56-8.7c-20.1-2.9-40.3-5.2-66.1-8.5c60,77,207.3,269.1,246.4,353.2
					c-18.4-21.9-129.2-161.9-146.5-184.6c-74.8-98.1-158.8-187.1-260.8-257.5c-17.3-11.9-34.8-22.8-52.7-32.8c-1.6,6-3.9,12-7.1,18
					c-16,30.8-54.3,44.4-86.9,38c-1.4,0.4-2.9,0.8-4.3,1.1c-3.4,2-6.6,4.1-9.9,6.2c-6.3,5.9-12.7,11.7-18.8,17.9
					c-7.3,7.6-14.2,15.5-20.9,23.5c-8,6.7-15.9,13.6-23.5,20.9c-6.3,6-12,12.4-17.9,18.8c-2.1,3.3-4.3,6.5-6.2,9.9
					c-0.3,1.4-0.7,2.9-1.1,4.3c6.4,32.7-7.2,70.9-38,86.9c-6,3.1-12,5.4-18,7.1c10,17.8,20.9,35.4,32.8,52.7
					c70.3,102.1,159.3,186,257.5,260.8c22.7,17.3,162.7,128.1,184.6,146.5c-84.2-39-276.2-186.4-353.2-246.4
					c3.3,25.8,5.6,46,8.5,66.1c2.7,18.7,7.3,37.2,8.7,56c2.5,34.5,26.9,52.4,51,70.4c58.1,43.5,115.2,88.6,175.3,129.1
					c67.5,45.5,137.8,86.9,207.2,129.7c14,8.6,28.9,16.1,44.2,22.2c6,2.4,16,1.6,20.7-2.1c3.3-2.5,2.5-13.3,0.4-19.2
					c-14.3-40-29.6-79.6-44.3-119.4c-1.4-3.7-1.5-7.8-3.2-16.9c16.2,6.9,28.6,12.1,40.9,17.5c14.2,6.2,27.9,7,42.7,0.6
					c29.1-12.6,54.2-29.1,75.4-49.4c0,0,0,0,0.1,0.1c0.2-0.2,0.5-0.5,0.7-0.8c0.2-0.2,0.5-0.5,0.8-0.7c0,0,0,0-0.1-0.1
					c20.3-21.3,36.9-46.3,49.4-75.4c6.4-14.7,5.6-28.5-0.6-42.7c-5.4-12.3-10.6-24.7-17.5-40.9c9.1,1.6,13.2,1.8,16.9,3.2
					c39.8,14.8,79.5,30,119.4,44.3c5.9,2.1,16.7,2.9,19.2-0.4c3.7-4.8,4.5-14.7,2.1-20.7c-6-15.3-13.5-30.2-22.2-44.2
					c-42.7-69.4-84.2-139.7-129.7-207.2c-40.5-60.1-85.7-117.2-129.1-175.3C1011.3,579.1,993.4,554.8,958.9,552.3z M846.7,772
					c9.2,34.4-1.1,69.5-24.1,93.4c-23.9,23.1-59,33.4-93.4,24.1c-52.2-14-83.1-67.7-69.1-119.9c4.5-16.6,13-31,24.1-42.6
					c11.5-11.2,26-19.7,42.6-24.1C779,688.8,832.6,719.8,846.7,772z"/>
				<path class="st1" d="M558.6,605.9c39.9-43,71.1-102.5,72.3-184.2c0,0-168.1-94.4-298.7-74c-7.9,1.2-15.1,4.4-21.1,9
					c-0.1-0.1-0.2-0.2-0.2-0.2c-0.3,0.4-0.6,0.8-0.9,1.2c-0.4,0.3-0.8,0.6-1.2,0.9c0.1,0.1,0.2,0.2,0.2,0.2
					c-4.6,6.1-7.8,13.3-9,21.1c-20.4,130.6,74,298.7,74,298.7c81.7-1.2,141.2-32.3,184.2-72.3c0,0,0,0,0,0c0.1-0.1,0.2-0.2,0.2-0.3
					C558.4,606.1,558.5,606,558.6,605.9C558.6,605.9,558.6,605.9,558.6,605.9z"/>
				<path class="st2" d="M971.5,514.5c-18.8-1.4-37.3-6-56-8.7c-20.1-2.9-40.3-5.2-66.1-8.5c60,77,207.3,269.1,246.4,353.2
					c-18.4-21.9-129.2-161.9-146.5-184.6c-74.8-98.1-158.8-187.1-260.8-257.5c-17.3-11.9-34.8-22.8-52.7-32.8c-1.6,6-3.9,12-7.1,18
					c-16,30.8-54.3,44.4-86.9,38c-1.4,0.4-2.9,0.8-4.3,1.1c-3.4,2-6.6,4.1-9.9,6.2c-6.3,5.9-12.7,11.7-18.8,17.9
					c-7.3,7.6-14.2,15.5-20.9,23.5c-8,6.7-15.9,13.6-23.5,20.9c-6.3,6-12,12.4-17.9,18.8c-2.1,3.3-4.3,6.5-6.2,9.9
					c-0.3,1.4-0.7,2.9-1.1,4.3c6.4,32.7-7.2,70.9-38,86.9c-6,3.1-12,5.4-18,7.1c10,17.8,20.9,35.4,32.8,52.7
					c70.3,102.1,159.3,186,257.5,260.8c22.7,17.3,162.7,128.1,184.6,146.5c-84.2-39-276.2-186.4-353.2-246.4
					c3.3,25.8,5.6,46,8.5,66.1c2.7,18.7,7.3,37.2,8.7,56c2.5,34.5,26.9,52.4,51,70.4c58.1,43.5,115.2,88.6,175.3,129.1
					c67.5,45.5,137.8,86.9,207.2,129.7c14,8.6,28.9,16.1,44.2,22.2c6,2.4,16,1.6,20.7-2.1c3.3-2.5,2.5-13.3,0.4-19.2
					c-14.3-40-29.6-79.6-44.3-119.4c-1.4-3.7-1.5-7.8-3.2-16.9c16.2,6.9,28.6,12.1,40.9,17.5c14.2,6.2,27.9,7,42.7,0.6
					c29.1-12.6,54.2-29.1,75.4-49.4c0,0,0,0,0.1,0.1c0.2-0.2,0.5-0.5,0.7-0.8c0.2-0.2,0.5-0.5,0.8-0.7c0,0,0,0-0.1-0.1
					c20.3-21.3,36.9-46.3,49.4-75.4c6.4-14.7,5.6-28.5-0.6-42.7c-5.4-12.3-10.6-24.7-17.5-40.9c9.1,1.6,13.2,1.8,16.9,3.2
					c39.8,14.8,79.5,30,119.4,44.3c5.9,2.1,16.7,2.9,19.2-0.4c3.7-4.8,4.5-14.7,2.1-20.7c-6-15.3-13.5-30.2-22.2-44.2
					c-42.7-69.4-84.2-139.7-129.7-207.2c-40.5-60.1-85.7-117.2-129.1-175.3C1023.8,541.4,1005.9,517.1,971.5,514.5z M859.2,734.2
					c9.2,34.4-1.1,69.5-24.1,93.4c-23.9,23.1-59,33.4-93.4,24.1c-52.2-14-83.1-67.7-69.1-119.9c4.5-16.6,13-31,24.1-42.6
					c11.5-11.2,26-19.7,42.6-24.1C791.5,651.1,845.2,682,859.2,734.2z"/>
				<path class="st3" d="M1251,1058.8c-9.8,21.8-21.3,41.9-34.3,60.6l135.1,224.8l-224.8-135.1c-18.6,13-38.8,24.5-60.6,34.3
					c21.5,47.7,46.4,88.5,94.9,112c43,20.8,83.4,46.8,125,70.5c57.5,32.8,115.1,65.4,172.5,98.4c52.7,30.2,105.3,60.7,157.9,91.1
					c1.2-0.9,2.3-1.8,3.5-2.6c0,0,0,0,0,0c0,0,0.1-0.1,0.1-0.1c0,0,0.1-0.1,0.1-0.1c0,0,0,0,0,0c0.9-1.2,1.8-2.3,2.6-3.5
					c-30.4-52.6-60.9-105.2-91.1-157.9c-32.9-57.4-65.6-115-98.4-172.5c-23.7-41.6-49.7-82-70.5-125
					C1339.5,1105.2,1298.7,1080.3,1251,1058.8z"/>
				<path class="st3" d="M573.7,565.6c39.9-43,71.1-102.5,72.3-184.2c0,0-168.1-94.4-298.7-74c-7.9,1.2-15.1,4.4-21.1,9
					c-0.1-0.1-0.2-0.2-0.2-0.2c-0.3,0.4-0.6,0.8-0.9,1.2c-0.4,0.3-0.8,0.6-1.2,0.9c0.1,0.1,0.2,0.2,0.2,0.2
					c-4.6,6.1-7.8,13.3-9,21.1c-20.4,130.6,74,298.7,74,298.7c81.7-1.2,141.2-32.3,184.2-72.3c0,0,0,0,0,0c0.1-0.1,0.2-0.2,0.2-0.3
					C573.5,565.8,573.6,565.7,573.7,565.6C573.7,565.6,573.7,565.6,573.7,565.6z"/>
			</g>
		</g>
		<path class="st4" d="M338.9,340.4c24.8-4.6,50.4-3.9,75.5-0.9c25.1,3.1,49.9,9.1,73.7,17.8l8.9,3.2l8.8,3.7
			c5.8,2.6,11.7,4.9,17.3,7.8c11.2,5.9,22.5,11.6,33,18.8c21.4,13.4,40.6,30.3,57.4,48.9c-5.7-2.8-11.2-5.8-16.6-8.9
			c-5.4-3-10.6-6.3-16.3-8.9c-5.5-2.8-10.9-5.6-16.3-8.5c-5.3-3-11.1-5.3-16.5-8l-8.2-4c-2.7-1.4-5.5-2.6-8.3-3.8
			c-5.6-2.3-11.1-4.9-16.7-7.3c-5.5-2.4-11.3-4.5-16.9-6.7l-8.4-3.4l-8.6-3c-22.7-8.4-46-15.4-69.6-21.5
			C387.6,349.8,363.7,344.6,338.9,340.4z"/>
	</g>
</g>
</svg>